<?xml version="1.0" encoding="utf-8"?>
<!-- Generator: Adobe Illustrator 24.3.0, SVG Export Plug-In . SVG Version: 6.00 Build 0)  -->
<svg version="1.1" id="Livello_1" xmlns="http://www.w3.org/2000/svg"
	xmlns:xlink="http://www.w3.org/1999/xlink" x="0px" y="0px"
	viewBox="0 0 427.7 270" style="enable-background:new 0 0 427.7 270;" xml:space="preserve">
<style type="text/css">
	.st0{fill:#DF1B12;}
	.st1{fill:none;}
</style>
<g id="Livello_1_1_">
	<rect x="56.5" y="223" class="st0" width="314.1" height="14"/>
	<path d="M237.7,115.1l7.8-4.6l-16.8-26c-4.6,1.6-9.1,2.2-13.6-1.1c-3.7-2.9-4.8-6.4-4.7-11.2c0.2-4.1,2.3-8,6-10.4
		c4-2.2,9.9-1.3,12.8,0.6L246,36.9l-8.2-5.2c13-6.1,29.6-4.1,40.9,5.2l-16.8,25.5c-3.4-2.3-9-2.5-12.6-0.6c-3.6,2-5.8,6.2-6.3,10.1
		c-0.4,4.4,1.2,8.1,4.5,11.2c5,4,10.1,2.7,13.9,1.3l16.7,26C264.9,119.6,250.7,121.1,237.7,115.1"/>
	<path d="M174.3,115.4c-10.8-4.8-17.7-13.4-21.1-20.5c-6.1-12-6.7-27.6-1.4-39.6c5.2-12.4,14.4-21.2,27-25.3
		c14.5-4,26.9-0.2,36.1,7.1l-16.8,25.6c-3.2-2.3-9.1-2.6-12.6-0.7c-3.6,2.2-5.3,5.4-6,9c-0.6,4.1,0.3,7.8,2.7,10.9
		c4.7,5,10.1,4.8,15.5,2.8l16.7,26C200,120.8,185.8,120.2,174.3,115.4"/>
	<path d="M72.9,174.1c0,1.6,0.1,2.9,0.3,3.9s0.7,1.9,1.3,2.5c0.7,0.6,1.5,1,2.6,1.3s2.6,0.4,4.3,0.4h1.9h2.5c0.9,0,2.1,0,3.4,0
		s3-0.1,5-0.1l-2.4,13.1c-1.6,0-3,0.1-4,0.1c-1.1,0-2,0-2.7,0h-2.3h-2.7c-4.2,0-7.8-0.4-10.8-1.1c-3-0.7-5.4-1.9-7.3-3.5
		c-1.9-1.6-3.3-3.8-4.2-6.5s-1.3-6.1-1.3-10.2v-6.5c0-3.8,0.4-7,1.3-9.7c0.9-2.7,2.3-4.9,4.2-6.6c1.9-1.7,4.3-3,7.3-3.7
		c3-0.8,6.6-1.2,10.8-1.2h2h2.7c1.1,0,2.3,0,3.8,0s3.2,0.1,5.3,0.1l-2.4,13.1c-2,0-3.7-0.1-5.2-0.1h-4.8c-1.8,0-3.2,0.1-4.3,0.4
		c-1.1,0.2-2,0.7-2.6,1.3s-1.1,1.4-1.3,2.5c-0.2,1-0.3,2.4-0.3,3.9L72.9,174.1L72.9,174.1z"/>
	<path d="M128.9,185.9h-14.7l-2.5,9.3H95.9l16.4-48.6h19.2l16.5,48.6h-16.5L128.9,185.9z M117.5,174h8.1l-4.1-14.5L117.5,174z"/>
	<polygon points="172.3,181.9 166.8,169.7 166.8,195.2 152.4,195.2 152.4,146.5 169,146.5 178.4,168 187.9,146.5 204.3,146.5 
		204.3,195.2 189.9,195.2 189.9,169.6 184.4,181.9"/>
		<path
		d="M234.3,145.2c4.2,0,7.9,0.4,10.9,1.2s5.4,2,7.3,3.7c1.9,1.7,3.3,3.9,4.2,6.7c0.9,2.7,1.3,6.1,1.3,10.1v8.1
		c0,4-0.4,7.3-1.3,10.1s-2.3,5-4.2,6.7s-4.4,2.9-7.3,3.7c-3,0.7-6.6,1.1-10.9,1.1c-4.3,0-7.9-0.4-10.9-1.1c-3-0.8-5.4-2-7.3-3.7
		c-1.9-1.7-3.3-3.9-4.2-6.7s-1.3-6.1-1.3-10.1v-8.1c0-4,0.4-7.3,1.3-10.1c0.9-2.8,2.3-5,4.2-6.7s4.3-3,7.3-3.7
		C226.5,145.6,230.1,145.2,234.3,145.2
		M234.3,183.3c1.5,0,2.7-0.1,3.7-0.4c0.9-0.3,1.7-0.7,2.2-1.3c0.6-0.6,0.9-1.5,1.1-2.6
		c0.2-1.1,0.3-2.5,0.3-4.2v-8.1c0-1.7-0.1-3.1-0.3-4.2c-0.2-1.1-0.6-2-1.1-2.6s-1.3-1.1-2.2-1.3c-0.9-0.3-2.1-0.4-3.7-0.4
		s-2.7,0.1-3.7,0.4c-0.9,0.2-1.7,0.7-2.2,1.3s-0.9,1.5-1.1,2.6c-0.2,1.1-0.3,2.5-0.3,4.2v8.1c0,1.7,0.1,3.1,0.3,4.2
		c0.2,1.1,0.6,2,1.1,2.6c0.6,0.6,1.3,1.1,2.2,1.3C231.6,183.2,232.8,183.3,234.3,183.3"/>
	<polygon points="262.2,195.2 262.2,184.7 283,158.9 262.2,158.9 264.4,146.5 302.7,146.5 302.7,157.4 281.9,182.8 304.2,182.8 
		301.9,195.2 	"/>
	<polygon points="307.7,195.2 307.7,184.7 328.5,158.9 307.7,158.9 309.9,146.5 348.2,146.5 348.2,157.4 327.3,182.8 349.7,182.8 
		347.4,195.2 	"/>
	<rect x="354.7" y="146.5" width="15.9" height="48.6"/>
</g>
</svg>